<svg width="96" height="96" viewBox="0 0 96 96" fill="none" xmlns="http://www.w3.org/2000/svg">
<g clip-path="url(#clip0_8731_72177)">
<ellipse cx="66.9767" cy="47.7914" rx="19.5261" ry="28.2913" fill="white" fill-opacity="0.3"/>
<ellipse cx="69.1463" cy="47.7007" rx="17.3565" ry="25.027" fill="white"/>
<ellipse cx="74.7398" cy="49.6049" rx="11.8648" ry="17.4101" fill="black"/>
</g>
<g clip-path="url(#clip1_8731_72177)">
<ellipse cx="30.0261" cy="47.7914" rx="19.5261" ry="28.2913" fill="white" fill-opacity="0.3"/>
<ellipse cx="32.1956" cy="47.7007" rx="17.3565" ry="25.027" fill="white"/>
<ellipse cx="37.7891" cy="49.6049" rx="11.8648" ry="17.4101" fill="black"/>
</g>
<defs>
<clipPath id="clip0_8731_72177">
<path d="M47.4507 39.2747C47.4507 28.3534 56.3041 19.5 67.2253 19.5V19.5C78.1466 19.5 87 28.3534 87 39.2747V56.8521C87 67.7733 78.1466 76.6268 67.2253 76.6268V76.6268C56.3041 76.6268 47.4507 67.7733 47.4507 56.8521V39.2747Z" fill="white"/>
</clipPath>
<clipPath id="clip1_8731_72177">
<path d="M10.5 39.2747C10.5 28.3534 19.3534 19.5 30.2746 19.5V19.5C41.1959 19.5 50.0493 28.3534 50.0493 39.2747V56.8521C50.0493 67.7733 41.1959 76.6268 30.2746 76.6268V76.6268C19.3534 76.6268 10.5 67.7733 10.5 56.8521V39.2747Z" fill="white"/>
</clipPath>
</defs>
</svg>
