<svg width="48" height="48" viewBox="0 0 48 48" fill="none" xmlns="http://www.w3.org/2000/svg">
<path d="M3.26526 11.08C4.07593 10.776 4.94993 10.624 5.88726 10.624C8.14193 10.624 9.26926 11.65 9.26926 13.702C9.26926 14.8166 9.14259 16.6533 8.88926 19.212C8.63593 21.7453 8.50926 24.38 8.50926 27.116C8.50926 29.852 8.59793 32.1193 8.77526 33.918C9.45926 33.994 10.1433 34.032 10.8273 34.032C14.1713 34.032 17.1099 33.4746 19.6433 32.36C19.9473 33.044 20.0993 33.8166 20.0993 34.678C20.0993 35.5393 19.7953 36.2866 19.1873 36.92C18.6046 37.528 17.8826 37.832 17.0213 37.832C15.2226 37.832 11.2833 37.68 5.20326 37.376C4.72193 37.3506 4.30393 37.2113 3.94926 36.958C3.59459 36.6793 3.41726 36.3373 3.41726 35.932C3.41726 34.5893 3.51859 32.322 3.72126 29.13C3.94926 25.938 4.06326 22.9993 4.06326 20.314C4.06326 17.6033 3.79726 14.5253 3.26526 11.08Z" fill="white" fill-opacity="0.87"/>
<path d="M38.3888 24.988L42.4548 24.684C43.9748 24.684 44.7348 25.4566 44.7348 27.002C44.7348 27.8886 44.6208 29.2693 44.3928 31.144C44.1648 33.0186 44.0508 34.5386 44.0508 35.704C43.4175 35.8053 41.9988 36.1853 39.7948 36.844C37.6161 37.5026 35.7921 37.832 34.3228 37.832C30.7255 37.832 28.0021 36.7173 26.1528 34.488C24.3288 32.2586 23.4168 29.2186 23.4168 25.368C23.4168 22.632 23.9108 20.124 24.8988 17.844C25.9121 15.564 27.4068 13.7146 29.3828 12.296C31.3588 10.8773 33.5375 10.168 35.9188 10.168C38.3255 10.168 40.3268 10.7253 41.9228 11.84C43.5441 12.9546 44.3548 14.462 44.3548 16.362C44.3548 17.426 44.0381 18.3253 43.4048 19.06C42.7968 19.7693 42.0115 20.124 41.0488 20.124C40.0861 20.124 39.4148 20.01 39.0348 19.782C39.1108 19.326 39.1488 18.87 39.1488 18.414C39.1488 17.0713 38.7688 15.982 38.0088 15.146C37.2488 14.2846 36.1721 13.854 34.7788 13.854C33.3855 13.854 32.0681 14.3226 30.8268 15.26C30.0921 16.2986 29.5221 17.7173 29.1168 19.516C28.7115 21.3146 28.5088 23.0626 28.5088 24.76C28.5088 27.496 29.0408 29.7506 30.1048 31.524C31.1688 33.272 32.8535 34.146 35.1588 34.146C36.8561 34.146 38.4395 33.652 39.9088 32.664C40.0101 31.676 40.0608 30.2573 40.0608 28.408C39.0475 28.712 38.2621 28.864 37.7048 28.864C36.3115 28.864 35.6148 28.1293 35.6148 26.66C35.6148 26.0266 35.7415 25.3553 35.9948 24.646C36.6788 24.874 37.4768 24.988 38.3888 24.988Z" fill="white" fill-opacity="0.87"/>
</svg>
